<?xml version="1.0" encoding="utf-8"?>
<!-- Generator: Adobe Illustrator 18.1.1, SVG Export Plug-In . SVG Version: 6.00 Build 0)  -->
<svg version="1.1" id="Layer_1" xmlns="http://www.w3.org/2000/svg" xmlns:xlink="http://www.w3.org/1999/xlink" x="0px" y="0px"
	 viewBox="0 0 129.8 222.5" enable-background="new 0 0 129.8 222.5" xml:space="preserve">
<rect x="0" width="129.8" height="222.5"/>
<circle opacity="0.6" fill="#FFFFFF" cx="52.8" cy="112.8" r="52.8"/>
<path id="SVGID_x5F_1_x5F_" fill="none" d="M197.6,112.8c0-33.9,27.5-61.4,61.4-61.4s61.4,27.5,61.4,61.4"/>
<text><textPath  xlink:href="#SVGID_x5F_1_x5F_" startOffset="3.5529%">
<tspan  fill="#EF4923" font-family="'MyriadPro-Regular'" font-size="10">% child marriage before age 15</tspan></textPath>
</text>
<path id="SVGID_x5F_2_x5F_" fill="none" d="M178.3,117.5c0-44.6,36.1-80.7,80.7-80.7s80.7,36.1,80.7,80.7"/>
<text><textPath  xlink:href="#SVGID_x5F_2_x5F_" startOffset="3.5529%">
<tspan  fill="#862887" font-family="'MyriadPro-Regular'" font-size="10">% child marriage before age 18</tspan></textPath>
</text>
<circle fill="#862887" cx="52.8" cy="112.8" r="37.8"/>
<circle fill="#EF4923" cx="52.8" cy="112.8" r="13.4"/>
<g>
	<g>
		<line fill="none" stroke="#FFFFFF" stroke-width="2" stroke-miterlimit="10" x1="52.8" y1="113.1" x2="52.8" y2="15"/>
		<g>
			<circle fill="#FFFFFF" cx="52.8" cy="113" r="1.9"/>
		</g>
		<g>
			<circle fill="#FFFFFF" cx="52.8" cy="15.1" r="1.9"/>
		</g>
	</g>
</g>
<rect x="62.3" y="9.5" fill="none" width="93.3" height="14"/>
<text transform="matrix(1 0 0 1 62.3335 16.6151)" fill="#FFFFFF" font-family="'MyriadPro-Regular'" font-size="10">male value</text>
<rect x="0" y="213.5" fill="none" width="24.3" height="14"/>
<text transform="matrix(1 0 0 1 -3.204346e-04 220.6146)" opacity="0.8" fill="#FFFFFF" font-family="'MyriadPro-Regular'" font-size="10">100% </text>
<rect x="0" y="195.8" fill="none" width="168" height="14"/>
<text transform="matrix(1 0 0 1 1.640320e-04 202.9489)" fill="#9E539F" font-family="'MyriadPro-Regular'" font-size="10">% child marriage before age 18</text>
<rect x="0" y="178.2" fill="none" width="137.3" height="14"/>
<text transform="matrix(1 0 0 1 1.640320e-04 185.2817)" fill="#EF4923" font-family="'MyriadPro-Regular'" font-size="10">% child marriage before age 15</text>
<rect x="61.3" y="107.8" fill="none" width="93.3" height="14"/>
<text transform="matrix(1 0 0 1 61.3335 114.9484)" fill="#FFFFFF" font-family="'MyriadPro-Regular'" font-size="10">female value</text>
</svg>
