<?xml version="1.0" encoding="utf-8"?>
<!-- Generator: Adobe Illustrator 19.1.0, SVG Export Plug-In . SVG Version: 6.00 Build 0)  -->
<svg version="1.1" id="Layer_1" xmlns="http://www.w3.org/2000/svg" xmlns:xlink="http://www.w3.org/1999/xlink" x="0px" y="0px"
	 viewBox="0 0 300 300" style="enable-background:new 0 0 300 300;" xml:space="preserve">
<style type="text/css">
	.st0{fill:none;stroke:#000000;}
</style>
<g>
	<path class="st0" d="M259.7,151.5c0-44.6,0-89.1,0-133.7c0-2.7,0.3-2.3-2.4-2.3c-67.5,0-135,0-202.5,0c-2.6,0-2.2-0.3-2.2,2.3
		c0,1.4,0,2.8,0,4.1c0,2.6-1.7,4.6-4.2,5c-1.8,0.3-3.7,0.5-5.5,0.8c-1.6,0.2-2.4,1.1-2.4,2.8c0,14.5,0,29.1,0,43.6
		c0,1.7,0.8,2.5,2.4,2.8c1.7,0.2,3.5,0.5,5.2,0.7c3,0.4,4.6,2.2,4.6,5.3c0,67.4,0,134.8,0,202.2c0,2.7,0,2.7,2.7,2.7
		c67.4,0,134.8,0,202.1,0c2.5,0,2.2,0.3,2.2-2.3C259.7,240.7,259.7,196.1,259.7,151.5z"/>
	<path class="st0" d="M52.5,182.6c0-17,0-33.3,0-49.6c0-1.8-1.6-3.7-3.3-4c-1.9-0.3-3.8-0.6-5.7-0.8c-2.3-0.2-3.2,0.7-3.2,3.2
		c0,10,0,19.9,0,29.9c0,5,0,10,0,14.9c0,2.3,0.5,2.8,2.7,3.1c1.8,0.3,3.7,0.5,5.5,0.8C50,180.4,51.3,180.9,52.5,182.6z"/>
	<path class="st0" d="M52.5,286.2c0-10,0-19.5,0-28.9c0-6.5,0-13.1,0-19.6c0-2.9-1.5-4.6-4.4-4.9c-1.4-0.2-2.7-0.4-4.1-0.6
		c-2.9-0.5-3.8,0.2-3.8,3.1c0,14,0,28,0,41.9c0,5.5-0.5,5.7,5.5,6.4C48.1,283.9,50.6,283.7,52.5,286.2z"/>
	<path class="st0" d="M52.5,130.5c0-1,0-1.6,0-2.2c0-15.4,0-30.7,0-46.1c0-3.4-1.2-4.8-4.5-5.3c-1.7-0.2-3.3-0.5-5-0.7
		c-1.8-0.1-2.6,0.6-2.7,2.5c0,3.1,0,6.2,0,9.4c0,11.9,0,23.8,0,35.7c0,2.7,0.5,3.2,3.2,3.6c1.9,0.2,3.8,0.5,5.7,0.8
		C50.5,128.4,51.4,129.2,52.5,130.5z"/>
	<path class="st0" d="M52.5,233.9c0-0.5,0-0.9,0-1.4c0-15.6,0-31.2,0-46.8c0-2.6-1.4-4.4-3.9-4.8c-1.8-0.3-3.7-0.5-5.5-0.8
		c-1.7-0.2-2.6,0.5-2.7,2.2c-0.1,0.9,0,1.8,0,2.7c0,14.2,0,28.4,0,42.7c0,2.6,0.6,3.2,3.2,3.6c1.7,0.2,3.4,0.5,5.2,0.7
		C50,232.3,51.3,232.8,52.5,233.9z"/>
</g>
</svg>
