<?xml version="1.0" standalone="no"?>
<!DOCTYPE svg PUBLIC "-//W3C//DTD SVG 1.1//EN" "http://www.w3.org/Graphics/SVG/1.1/DTD/svg11.dtd" >
<svg>
<metadata>
Created by FontForge 20090622 at Tue Nov 24 02:00:51 2015
 By deploy user
Copyright (c) 2014 Typotheque.com All rights reserved.
</metadata>
<defs>
<font id="Neue-Black" horiz-adv-x="697" >
  <font-face 
    font-family="Neue Black"
    font-weight="900"
    font-stretch="normal"
    units-per-em="1000"
    panose-1="2 11 10 4 0 0 0 2 0 3"
    ascent="800"
    descent="-200"
    x-height="556"
    cap-height="800"
    bbox="-124 -217 1419 1060"
    underline-thickness="50"
    underline-position="-50"
    unicode-range="U+0020-U+FB02"
  />
<missing-glyph horiz-adv-x="280" 
 />
    <glyph glyph-name=".notdef" horiz-adv-x="280" 
 />
    <glyph glyph-name=".null" horiz-adv-x="0" 
 />
    <glyph glyph-name="nonmarkingreturn" horiz-adv-x="333" 
 />
    <glyph glyph-name="space" unicode=" " horiz-adv-x="280" 
 />
    <glyph glyph-name="exclam" unicode="!" horiz-adv-x="383" 
d="M97 270l-10 262v268h208v-265l-10 -265h-188zM87 0v171h209v-171h-209z" />
    <glyph glyph-name="quotedbl" unicode="&#x22;" horiz-adv-x="562" 
d="M258 833l-15 -345h-175l-14 345h204zM508 833l-15 -345h-175l-14 345h204z" />
    <glyph glyph-name="numbersign" unicode="#" horiz-adv-x="859" 
d="M469 0l15 156h-159l-15 -156h-190l15 156h-80v150h95l19 189h-114v150h129l16 155h190l-16 -155h159l16 155h190l-16 -155h81v-150h-96l-19 -189h115v-150h-130l-15 -156h-190zM359 495l-19 -189h159l19 189h-159z" />
    <glyph glyph-name="dollar" unicode="$" horiz-adv-x="703" 
d="M292 -100v85q-141 7 -231 50l8 183q108 -52 223 -61v160q-42 12 -71 22.5t-65 30.5t-58 43.5t-37.5 60t-15.5 82.5q0 108 68 174t179 82v81h130v-81q139 -13 219 -58l-38 -170q-69 40 -181 56v-163q42 -12 70.5 -21.5t64 -28.5t57 -40.5t36.5 -56t15 -77.5
q0 -96 -64 -169t-179 -93v-91h-130zM243 579q0 -37 49 -61v119q-49 -17 -49 -58zM466 223q0 32 -44 53v-109q44 17 44 56z" />
    <glyph glyph-name="percent" unicode="%" horiz-adv-x="1137" 
d="M201 0l562 800h160l-562 -800h-160zM203 579q0 -52 14.5 -76t49.5 -24q64 0 64 100q0 53 -13.5 76.5t-50.5 23.5q-64 0 -64 -100zM36 579q0 111 57 173.5t174 62.5t174 -62.5t57 -173.5t-57 -173.5t-174 -62.5t-174 62.5t-57 173.5zM806 221q0 -52 14.5 -76t49.5 -24
q64 0 64 100q0 53 -13.5 76.5t-50.5 23.5q-64 0 -64 -100zM639 221q0 111 57 173.5t174 62.5t174 -62.5t57 -173.5t-57 -173.5t-174 -62.5t-174 62.5t-57 173.5z" />
    <glyph glyph-name="ampersand" unicode="&#x26;" horiz-adv-x="893" 
d="M700 430l117 -98q-25 -90 -86 -162q78 -30 141 -34l-24 -136q-117 0 -249 59q-129 -75 -276 -75q-132 0 -209.5 63.5t-77.5 168.5q0 131 144 207q-47 86 -47 160q0 95 72.5 163.5t194.5 68.5q113 0 181 -58.5t68 -148.5q0 -39 -15 -71.5t-35.5 -54t-57.5 -43t-63 -32.5
t-70 -28q76 -79 185 -142q79 77 107 193zM300 584q0 -47 28 -100q41 15 63 24.5t48 24t37.5 31t11.5 36.5q0 31 -26.5 50t-64.5 19q-41 0 -69 -22t-28 -63zM355 131q42 0 90 15q-109 75 -185 164q-43 -32 -43 -74q0 -51 35 -78t103 -27z" />
    <glyph glyph-name="quotesingle" unicode="'" horiz-adv-x="312" 
d="M258 833l-15 -345h-175l-14 345h204z" />
    <glyph glyph-name="parenleft" unicode="(" horiz-adv-x="392" 
d="M268 887l102 -95q-80 -89 -124.5 -200.5t-44.5 -227.5q0 -124 48.5 -255.5t124.5 -213.5l-100 -88q-105 78 -171.5 236t-66.5 322q0 160 65 303t167 219z" />
    <glyph glyph-name="parenright" unicode=")" horiz-adv-x="392" 
d="M22 792l102 95q102 -76 167 -219t65 -303q0 -164 -66.5 -322t-171.5 -236l-100 88q76 82 124.5 213.5t48.5 255.5q0 116 -44.5 227.5t-124.5 200.5z" />
    <glyph glyph-name="asterisk" unicode="*" horiz-adv-x="524" 
d="M485 596l-115 -42l77 -101l-102 -74l-81 97l-83 -96l-102 74l81 99l-121 43l39 120l116 -34l-5 118h138l-3 -115l123 31z" />
    <glyph glyph-name="plus" unicode="+" horiz-adv-x="608" 
d="M369 577v-202h202v-130h-202v-202h-130v202h-202v130h202v202h130z" />
    <glyph glyph-name="comma" unicode="," horiz-adv-x="318" 
d="M165 -140h-140l50 329h199z" />
    <glyph glyph-name="hyphen" unicode="-" horiz-adv-x="449" 
d="M387 235h-325v150h325v-150z" />
    <glyph glyph-name="hyphen" unicode="&#xad;" horiz-adv-x="449" 
d="M387 235h-325v150h325v-150z" />
    <glyph glyph-name="period" unicode="." horiz-adv-x="333" 
d="M62 0v199h209v-199h-209z" />
    <glyph glyph-name="slash" unicode="/" horiz-adv-x="534" 
d="M28 0l318 800h160l-318 -800h-160z" />
    <glyph glyph-name="zero" unicode="0" horiz-adv-x="752" 
d="M46 400q0 190 82 303t248 113t248 -113t82 -303t-82 -303t-248 -113t-248 113t-82 303zM246 401q0 -243 131 -243q129 0 129 250q0 234 -127 234q-133 0 -133 -241z" />
    <glyph glyph-name="one" unicode="1" horiz-adv-x="616" 
d="M599 0h-544v175h177v420l-177 -25v180l344 66h33v-641h167v-175z" />
    <glyph glyph-name="two" unicode="2" horiz-adv-x="671" 
d="M626 0h-563v175q71 54 123.5 98.5t106 96.5t82 99.5t28.5 86.5q0 41 -34 66t-93 25q-103 0 -209 -50l-34 150q122 69 261 69q143 0 228.5 -55.5t85.5 -165.5q0 -59 -26 -116t-78.5 -112.5t-98.5 -94.5t-118 -94v-3h339v-175z" />
    <glyph glyph-name="three" unicode="3" horiz-adv-x="656" 
d="M605 602q0 -61 -35.5 -112.5t-99.5 -78.5v-2q66 -29 99.5 -68t33.5 -106q0 -78 -49 -136t-126.5 -86.5t-171.5 -28.5q-117 0 -216 48l18 171q40 -20 103.5 -36t108.5 -15q55 2 89 23t34 57q0 45 -53 71t-143 21l-23 126q109 21 160 47t51 67q0 36 -31.5 56.5t-81.5 21.5
q-88 1 -197 -52l-22 155q111 71 255 71q79 0 145 -23.5t109 -73t43 -117.5z" />
    <glyph glyph-name="four" unicode="4" horiz-adv-x="689" 
d="M662 133h-69v-133h-198v133h-366v175l210 492h219l-219 -492h156v166h198v-166h69v-175z" />
    <glyph glyph-name="five" unicode="5" horiz-adv-x="655" 
d="M412 228q0 54 -84.5 79t-265.5 35l39 458h497l-15 -175h-314l-14 -135q359 -17 359 -239q0 -114 -88.5 -190t-248.5 -76q-125 0 -236 53l10 166q108 -54 220 -54q141 0 141 78z" />
    <glyph glyph-name="six" unicode="6" horiz-adv-x="722" 
d="M574 814l62 -190q-39 3 -74 3q-229 0 -294 -160q85 44 172 44q108 0 180.5 -64.5t72.5 -176.5q0 -128 -94 -207t-238 -79q-152 0 -238 92t-86 250q0 144 71 258t182.5 173t237.5 59q12 0 28 -1t18 -1zM358 356q-55 0 -114 -22q0 -86 33 -138t95 -52q51 0 81 34t30 79
q0 48 -35 73.5t-90 25.5z" />
    <glyph glyph-name="seven" unicode="7" horiz-adv-x="598" 
d="M321 0h-205l242 612h-342l23 187h547l10 -47z" />
    <glyph glyph-name="eight" unicode="8" horiz-adv-x="714" 
d="M49 204q0 121 126 176q-118 60 -118 176q0 119 90 189.5t223 70.5q129 0 209 -60t80 -152q0 -108 -123 -167q128 -59 128 -187q0 -66 -29.5 -118.5t-78.5 -84t-105.5 -47.5t-116.5 -16q-73 0 -136 22t-106 73.5t-43 124.5zM469 226q0 10 -3 19t-10 17t-13.5 14
t-19.5 12.5t-22 10.5t-26.5 10.5t-27.5 9.5l-31 9.5l-31 9.5q-26 -19 -43 -46t-17 -52q0 -47 35.5 -75t101.5 -28q55 0 81 25.5t26 63.5zM243 585q0 -22 12 -38t36 -28t49.5 -20t61.5 -18l12 -3q54 38 54 98q0 38 -30.5 64t-85.5 26q-52 0 -80.5 -23t-28.5 -58z" />
    <glyph glyph-name="nine" unicode="9" horiz-adv-x="723" 
d="M148 -13l-62 190q39 -3 74 -3q227 0 294 160q-83 -44 -172 -44q-108 0 -180.5 64.5t-72.5 176.5q0 128 94 207t238 79q152 0 238 -92t86 -250q0 -144 -71 -258t-182.5 -173t-237.5 -59q-12 0 -28 1t-18 1zM364 445q59 0 114 22q-1 86 -34 138t-94 52q-51 0 -81 -34
t-30 -79q0 -48 35 -73.5t90 -25.5z" />
    <glyph glyph-name="colon" unicode=":" horiz-adv-x="355" 
d="M73 0v199h209v-199h-209zM73 387v199h209v-199h-209z" />
    <glyph glyph-name="semicolon" unicode=";" horiz-adv-x="351" 
d="M79 387v199h209v-199h-209zM173 -140h-140l50 329h199z" />
    <glyph glyph-name="less" unicode="&#x3c;" horiz-adv-x="525" 
d="M469 581v-165l-265 -123l265 -118v-161l-433 206v147z" />
    <glyph glyph-name="equal" unicode="=" horiz-adv-x="567" 
d="M503 365h-439v130h439v-130zM503 115h-439v130h439v-130z" />
    <glyph glyph-name="greater" unicode="&#x3e;" horiz-adv-x="525" 
d="M56 426v165l433 -214v-147l-433 -206v161l265 118z" />
    <glyph glyph-name="question" unicode="?" horiz-adv-x="653" 
d="M152 0v171h209v-171h-209zM161 242v170q133 21 192 54.5t59 82.5q0 37 -30 58t-85 21q-109 0 -218 -56l-44 173q135 71 282 71q135 0 217 -60.5t82 -182.5q0 -47 -14 -83t-34.5 -59t-57 -42t-68 -29t-81.5 -23v-95h-200z" />
    <glyph glyph-name="at" unicode="@" horiz-adv-x="875" 
d="M496 172q-35 -68 -104 -68q-53 0 -94.5 38.5t-41.5 122.5q0 91 54 153t157 62q80 0 150 -29l-16 -181q-1 -17 7 -24.5t18 -7.5q26 0 44 39.5t18 92.5q0 95 -60 139t-152 44q-54 0 -101 -14.5t-87.5 -45.5t-64.5 -87t-24 -130q0 -248 275 -248q101 0 209 28l-5 -137
q-96 -34 -214 -34q-415 0 -415 383q0 93 25.5 167.5t67 122.5t98.5 80t117 45t125 13q159 0 257 -82.5t98 -250.5q0 -131 -60 -194t-160 -63q-95 0 -121 66zM426 251q7 0 19 6l16 96h-4q-23 0 -37 -21t-14 -49q0 -32 20 -32z" />
    <glyph glyph-name="A" unicode="A" horiz-adv-x="822" 
d="M603 0l-50 153h-293l-55 -153h-213l321 800h206l301 -800h-217zM415 583l-97 -267h183z" />
    <glyph glyph-name="B" unicode="B" horiz-adv-x="765" 
d="M80 0v800h337q310 0 310 -219q0 -121 -96 -172q96 -51 96 -175q0 -107 -75 -170.5t-234 -63.5h-338zM424 333h-144v-163h144q50 0 72.5 25t22.5 57q0 31 -22.5 56t-72.5 25zM424 630h-144v-163h144q49 0 72 24.5t23 55.5q0 30 -23 56.5t-72 26.5z" />
    <glyph glyph-name="C" unicode="C" horiz-adv-x="695" 
d="M672 196v-185q-72 -27 -208 -27q-120 0 -217 58t-148.5 153t-51.5 206q0 174 122 294t313 120q135 0 203 -23l-19 -182q-79 26 -178 26q-111 0 -173 -62t-62 -173q0 -110 66 -172t174 -62q62 0 94.5 6t84.5 23z" />
    <glyph glyph-name="D" unicode="D" horiz-adv-x="825" 
d="M80 0v800h303q169 0 288.5 -113.5t119.5 -286.5q0 -165 -120.5 -282.5t-287.5 -117.5h-303zM383 620h-103v-440h103q100 0 155.5 66t55.5 154q0 89 -56.5 154.5t-154.5 65.5z" />
    <glyph glyph-name="E" unicode="E" horiz-adv-x="692" 
d="M649 0h-569v800h569v-180h-369v-135h299v-170h-299v-135h369v-180z" />
    <glyph glyph-name="F" unicode="F" horiz-adv-x="677" 
d="M609 305h-329v-305h-200v800h599v-180h-399v-135h329v-180z" />
    <glyph glyph-name="G" unicode="G" horiz-adv-x="816" 
d="M439 285v170h319v-409q-101 -62 -279 -62q-125 0 -225 45t-162 140.5t-62 227.5q0 182 122.5 300.5t327.5 118.5q86 0 162.5 -16.5t114.5 -40.5l-14 -179q-96 58 -258 58q-119 0 -184 -59t-65 -176q0 -245 252 -245q36 0 74 3v124h-123z" />
    <glyph glyph-name="H" unicode="H" horiz-adv-x="968" 
d="M684 0v305h-400v-305h-200v800h200v-305h400v305h200v-800h-200z" />
    <glyph glyph-name="I" unicode="I" horiz-adv-x="364" 
d="M80 0v800h200v-800h-200z" />
    <glyph glyph-name="J" unicode="J" horiz-adv-x="499" 
d="M254 350v450h200v-450q0 -180 -99 -265t-325 -85v188q131 0 177.5 39.5t46.5 122.5z" />
    <glyph glyph-name="K" unicode="K" horiz-adv-x="791" 
d="M80 0v800h200v-334l265 334h238l-330 -381l329 -419h-252l-250 336v-336h-200z" />
    <glyph glyph-name="L" unicode="L" horiz-adv-x="657" 
d="M80 0v800h200v-610h359v-190h-559z" />
    <glyph glyph-name="M" unicode="M" horiz-adv-x="1156" 
d="M479 0l-195 411v-411h-200v800h200l288 -590l300 590h200v-800h-200v438l-227 -438h-166z" />
    <glyph glyph-name="N" unicode="N" horiz-adv-x="968" 
d="M684 0l-400 463v-463h-200v800h176l424 -495v495h200v-800h-200z" />
    <glyph glyph-name="O" unicode="O" horiz-adv-x="890" 
d="M35 403q0 193 113.5 303t298.5 110q182 0 295 -107.5t113 -304.5q0 -102 -33 -183.5t-89.5 -132.5t-129.5 -77.5t-157 -26.5t-158 27t-130.5 78t-89.5 132t-33 182zM241 402q0 -122 56.5 -186t146.5 -64q92 0 148.5 64.5t56.5 191.5q0 116 -56.5 178t-147.5 62
t-147.5 -62.5t-56.5 -183.5z" />
    <glyph glyph-name="P" unicode="P" horiz-adv-x="753" 
d="M80 0v800h379q128 0 198 -78.5t70 -194.5q0 -126 -80.5 -204t-187.5 -78h-179v-245h-200zM410 620h-130v-205h130q54 0 82 32t28 75q0 37 -28 67.5t-82 30.5z" />
    <glyph glyph-name="Q" unicode="Q" horiz-adv-x="889" 
d="M35 403q0 193 113.5 303t298.5 110q182 0 295 -107.5t113 -304.5q0 -177 -97 -289l93 -115h-197l-19 23q-85 -39 -189 -39q-84 0 -158 27t-130.5 78t-89.5 132t-33 182zM241 402q0 -122 56.5 -186t146.5 -64q43 0 76 13l-142 178h198l52 -65q21 57 21 130
q0 116 -56.5 178t-147.5 62t-147.5 -62.5t-56.5 -183.5z" />
    <glyph glyph-name="R" unicode="R" horiz-adv-x="785" 
d="M81 0v800h379q128 0 198 -78.5t70 -194.5q0 -85 -38.5 -149.5t-101.5 -99.5l140 -278h-225l-111 245h-111v-245h-200zM411 620h-130v-205h130q54 0 82 32t28 75q0 37 -28 67.5t-82 30.5z" />
    <glyph glyph-name="S" unicode="S" horiz-adv-x="678" 
d="M448 223q0 28 -30.5 47t-75.5 29.5t-98.5 29t-98.5 42t-75.5 71.5t-30.5 114q0 123 87 191.5t222 68.5q75 0 151 -17.5t124 -44.5l-38 -170q-48 29 -115.5 45t-128.5 16q-47 0 -75.5 -17.5t-28.5 -48.5q0 -30 30.5 -51t76 -31.5t98.5 -28.5t98.5 -39.5t76 -67
t30.5 -108.5q0 -115 -81.5 -192t-233.5 -77q-168 0 -277 51l8 183q131 -63 275 -63q110 0 110 68z" />
    <glyph glyph-name="T" unicode="T" horiz-adv-x="710" 
d="M705 620h-250v-620h-200v620h-250v180h700v-180z" />
    <glyph glyph-name="U" unicode="U" horiz-adv-x="904" 
d="M632 800h200v-416q0 -168 -108 -284t-272 -116q-172 0 -276 102.5t-104 297.5v416h200v-416q0 -212 180 -212q84 0 132 60.5t48 151.5v416z" />
    <glyph glyph-name="V" unicode="V" horiz-adv-x="808" 
d="M210 800l188 -566l212 566h208l-321 -800h-206l-301 800h220z" />
    <glyph glyph-name="W" unicode="W" horiz-adv-x="1239" 
d="M1242 800l-251 -800h-211l-163 527l-168 -527h-211l-231 800h217l133 -556l167 556h197l160 -559l153 559h208z" />
    <glyph glyph-name="X" unicode="X" horiz-adv-x="788" 
d="M808 800l-306 -401l306 -399h-247l-167 248l-166 -248h-248l306 400l-306 400h248l166 -249l167 249h247z" />
    <glyph glyph-name="Y" unicode="Y" horiz-adv-x="788" 
d="M207 800l182 -356l211 356h208l-324 -533v-267h-200v266l-304 534h227z" />
    <glyph glyph-name="Z" unicode="Z" horiz-adv-x="713" 
d="M670 0h-629v159l353 461h-353v180h626v-120l-372 -500h375v-180z" />
    <glyph glyph-name="bracketleft" unicode="[" horiz-adv-x="353" 
d="M304 -200h-228v1033h228v-139h-75v-755h75v-139z" />
    <glyph glyph-name="backslash" unicode="\" horiz-adv-x="534" 
d="M188 800l318 -800h-160l-318 800h160z" />
    <glyph glyph-name="bracketright" unicode="]" horiz-adv-x="353" 
d="M277 -200h-228v139h75v755h-75v139h228v-1033z" />
    <glyph glyph-name="asciicircum" unicode="^" horiz-adv-x="727" 
d="M687 367h-205l-123 265l-118 -265h-201l206 433h227z" />
    <glyph glyph-name="underscore" unicode="_" horiz-adv-x="500" 
d="M500 -217h-500v150h500v-150z" />
    <glyph glyph-name="grave" unicode="`" horiz-adv-x="403" 
d="M353 607h-180l-123 193h213z" />
    <glyph glyph-name="a" unicode="a" horiz-adv-x="703" 
d="M639 0h-197v88q-42 -56 -87.5 -80.5t-105.5 -24.5q-117 0 -166 76t-49 213q0 64 16.5 115.5t53.5 94.5t104 67t159 24q117 0 272 -17v-556zM315 138q63 0 126 63v215q-36 7 -89 7q-69 0 -98 -44.5t-29 -108.5q0 -132 90 -132z" />
    <glyph glyph-name="b" unicode="b" horiz-adv-x="689" 
d="M61 7v825h197v-352q78 93 190 93q208 0 208 -264q0 -69 -14.5 -123t-50 -102t-103.5 -74.5t-166 -26.5q-132 0 -261 24zM377 408q-65 0 -119 -45v-222q44 -5 79 -5q71 0 99 40t28 111q0 70 -21.5 95.5t-65.5 25.5z" />
    <glyph glyph-name="c" unicode="c" horiz-adv-x="558" 
d="M373 406q-79 0 -114.5 -30t-35.5 -93q0 -132 140 -132q91 0 152 17v-154q-76 -31 -194 -31q-133 0 -211.5 71.5t-78.5 215.5q0 48 9 90.5t31 82t56 68t87 45.5t120 17q99 0 188 -20l-9 -169q-95 22 -140 22z" />
    <glyph glyph-name="d" unicode="d" horiz-adv-x="703" 
d="M442 0v88q-42 -56 -87.5 -80.5t-105.5 -24.5q-110 0 -163 72.5t-53 198.5q0 319 334 319q34 0 75 -7v266h198v-832h-198zM315 138q63 0 127 64v213q-50 8 -91 8q-71 0 -98.5 -41t-27.5 -112q0 -74 23.5 -103t66.5 -29z" />
    <glyph glyph-name="e" unicode="e" horiz-adv-x="624" 
d="M583 229h-353q13 -45 49.5 -63.5t97.5 -18.5q76 0 191 17l-16 -157q-96 -24 -197 -24q-177 0 -250 70t-73 210q0 310 309 310q55 0 97.5 -10.5t79 -35t56.5 -71t20 -113.5q0 -46 -11 -114zM329 424q-39 0 -66 -25t-36 -73h179q3 12 3 24q0 34 -22.5 54t-57.5 20z" />
    <glyph glyph-name="f" unicode="f" horiz-adv-x="432" 
d="M30 395v161h74v68q0 106 60.5 165.5t164.5 59.5q64 0 142 -22l4 -173q-52 20 -106 20q-67 0 -67 -62v-56h120l-20 -161h-100v-395h-198v395h-74z" />
    <glyph glyph-name="g" unicode="g" horiz-adv-x="690" 
d="M432 87v40q-78 -93 -190 -93q-97 0 -152.5 58.5t-55.5 179.5q0 64 16.5 115.5t53.5 94.5t104 67t159 24q106 0 261 -17v-510q0 -119 -84 -191t-232 -72q-122 0 -220 25l-17 176q41 -11 109 -20t121 -9q68 0 97.5 27.5t29.5 104.5zM307 189q64 0 125 54l-1 167
q-60 5 -79 5q-71 0 -99 -33t-28 -92q0 -56 21 -78.5t61 -22.5z" />
    <glyph glyph-name="h" unicode="h" horiz-adv-x="696" 
d="M63 0v832h197v-367q94 108 197 108q94 0 137.5 -43t43.5 -145v-385h-198v342q0 31 -15.5 42.5t-46.5 11.5q-62 0 -118 -34v-362h-197z" />
    <glyph glyph-name="i" unicode="i" horiz-adv-x="359" 
d="M98 0v556h198v-556h-198zM98 639v177h198v-177h-198z" />
    <glyph glyph-name="j" unicode="j" horiz-adv-x="359" 
d="M98 9v547h198v-589q0 -89 -57.5 -136.5t-149.5 -47.5q-51 0 -105 15l-17 167q36 -9 73 -9q58 0 58 53zM98 639v177h198v-177h-198z" />
    <glyph glyph-name="k" unicode="k" horiz-adv-x="656" 
d="M63 0v832h197v-523l171 247h227l-215 -261l215 -295h-238l-160 254v-254h-197z" />
    <glyph glyph-name="l" unicode="l" horiz-adv-x="344" 
d="M77 0v832h198v-832h-198z" />
    <glyph glyph-name="m" unicode="m" horiz-adv-x="1052" 
d="M796 0v342q0 54 -68 54q-48 0 -101 -33v-363h-198v342q0 54 -68 54q-49 0 -102 -33v-363h-197v556l197 17v-105q91 105 193 105q141 0 167 -114q47 57 97.5 85.5t114.5 28.5q163 0 163 -188v-385h-198z" />
    <glyph glyph-name="n" unicode="n" horiz-adv-x="695" 
d="M62 0v556l197 17v-108q94 108 197 108q94 0 137.5 -43t43.5 -145v-385h-198v342q0 31 -15.5 42.5t-46.5 11.5q-62 0 -118 -34v-362h-197z" />
    <glyph glyph-name="o" unicode="o" horiz-adv-x="668" 
d="M32 278q0 138 73 216.5t229 78.5q157 0 229.5 -79t72.5 -216q0 -138 -72 -216.5t-229 -78.5q-156 0 -229.5 78.5t-73.5 216.5zM224 283q0 -75 26 -110t84 -35t84 34.5t26 108.5t-26 107.5t-85 33.5t-84 -33t-25 -106z" />
    <glyph glyph-name="p" unicode="p" horiz-adv-x="690" 
d="M62 -200v756l197 17v-93q79 93 190 93q208 0 208 -265q0 -69 -15 -123.5t-50.5 -102t-104 -73.5t-167.5 -26q-30 0 -61 2v-185h-197zM378 408q-66 0 -119 -45v-227q44 -5 78 -5q72 0 100 41.5t28 114.5q0 70 -21.5 95.5t-65.5 25.5z" />
    <glyph glyph-name="q" unicode="q" horiz-adv-x="689" 
d="M627 554v-754h-197v273q-39 -48 -81 -69t-98 -21q-111 0 -164.5 70.5t-53.5 199.5q0 320 333 320q144 0 261 -19zM319 138q57 0 111 53v219q-60 5 -80 5q-71 0 -98.5 -37.5t-27.5 -105.5q0 -134 95 -134z" />
    <glyph glyph-name="r" unicode="r" horiz-adv-x="500" 
d="M62 0v556l197 17v-111q40 52 82.5 81.5t98.5 29.5q15 0 41 -2l-2 -203q-33 8 -82 8q-75 0 -138 -28v-348h-197z" />
    <glyph glyph-name="s" unicode="s" horiz-adv-x="566" 
d="M361 173q0 16 -23 22t-77 12q-37 4 -61 8.5t-58.5 17t-55 30t-36 50t-15.5 75.5q0 93 70 139t179 46q127 0 226 -29l-6 -168q-132 39 -206 39q-93 0 -93 -31q0 -19 24.5 -26.5t75.5 -13.5q28 -3 44 -5.5t44 -8t45 -13t37.5 -20t32.5 -28.5t20 -40.5t8 -53.5
q0 -85 -67 -138.5t-195 -53.5q-107 0 -220 26l-12 156q144 -28 220 -28q99 0 99 36z" />
    <glyph glyph-name="t" unicode="t" horiz-adv-x="462" 
d="M24 395v161h78v168h198v-168h141l-16 -161h-125v-178q0 -53 58 -53q37 0 65 10l-11 -175q-76 -16 -123 -16q-187 0 -187 171v241h-78z" />
    <glyph glyph-name="u" unicode="u" 
d="M634 556v-556h-199v90q-95 -107 -197 -107q-93 0 -136.5 43t-43.5 146v384h197v-342q0 -31 15.5 -42.5t47.5 -11.5q59 0 117 34v362h199z" />
    <glyph glyph-name="v" unicode="v" horiz-adv-x="646" 
d="M207 556l111 -406h4l131 406h195l-200 -556h-256l-193 556h208z" />
    <glyph glyph-name="w" unicode="w" horiz-adv-x="988" 
d="M222 556l62 -414h4l113 414h194l103 -408h4l75 408h192l-137 -556h-259l-84 356h-4l-99 -356h-252l-110 556h198z" />
    <glyph glyph-name="x" unicode="x" horiz-adv-x="643" 
d="M635 556l-179 -264l179 -292h-226l-92 181l-95 -181h-214l180 262l-180 294h217l98 -178l107 178h205z" />
    <glyph glyph-name="y" unicode="y" 
d="M435 87v49q-95 -106 -196 -106q-94 0 -137.5 43t-43.5 145v338h197v-295q0 -31 15.5 -42.5t47.5 -11.5q61 0 117 33v316h199v-510q0 -119 -85.5 -191t-241.5 -72q-74 0 -205 19l-19 167q150 -20 212 -20q79 0 109.5 29t30.5 109z" />
    <glyph glyph-name="z" unicode="z" horiz-adv-x="592" 
d="M554 0h-506v129l243 266h-262l30 161h476l16 -99l-266 -296h269v-161z" />
    <glyph glyph-name="braceleft" unicode="{" horiz-adv-x="385" 
d="M338 -200h-62q-102 0 -138.5 41.5t-36.5 154.5v195q0 36 -19 47.5t-50 11.5v115q27 0 48.5 15t21.5 44v213q0 108 36 152t136 44h62v-139h-20q-63 0 -63 -48v-257q0 -11 -1.5 -20.5t-3.5 -16t-6.5 -13t-7 -9.5t-9 -8t-8 -6t-9.5 -6l-8 -4q18 -9 24.5 -12.5t17.5 -22
t11 -45.5v-239q0 -48 65 -48h20v-139z" />
    <glyph glyph-name="bar" unicode="|" horiz-adv-x="312" 
d="M80 0v800h152v-800h-152z" />
    <glyph glyph-name="braceright" unicode="}" horiz-adv-x="385" 
d="M109 -200h-62v139h20q65 0 65 48v239q0 27 11 45.5t17.5 22t24.5 12.5q-1 1 -7 4t-8.5 4.5t-7.5 5t-7.5 6.5l-7 8t-6.5 10t-4.5 12t-3.5 15t-1 18v257q0 48 -63 48h-20v139h62q100 0 136 -44t36 -152v-213q0 -29 21.5 -44t48.5 -15v-115q-31 0 -50 -11.5t-19 -47.5v-195
q0 -113 -36.5 -154.5t-138.5 -41.5z" />
    <glyph glyph-name="asciitilde" unicode="~" horiz-adv-x="657" 
d="M473 239q-52 0 -141.5 30.5t-141.5 30.5q-16 0 -32 -3.5t-30.5 -9.5t-24 -11.5l-21 -12.5t-13.5 -8l-16 183q25 18 65.5 35t76.5 17q70 0 149 -30t120 -30q37 0 71.5 13t53.5 32l18 -181q-30 -28 -59.5 -41.5t-74.5 -13.5z" />
    <glyph glyph-name="uni00A0" unicode="&#xa0;" horiz-adv-x="280" 
 />
    <glyph glyph-name="exclamdown" unicode="&#xa1;" horiz-adv-x="352" 
d="M72 -200v265l10 265h188l10 -262v-268h-208zM72 429v171h209v-171h-209z" />
    <glyph glyph-name="cent" unicode="&#xa2;" horiz-adv-x="625" 
d="M326 -15v112q-124 5 -206.5 79t-82.5 207q0 127 72.5 210t216.5 92v115h100v-117q74 -6 143 -24l-13 -157q-70 12 -130 18v-261q71 5 138 22v-154q-40 -17 -138 -26v-116h-100zM221 402q0 -117 105 -140v259q-105 -16 -105 -119z" />
    <glyph glyph-name="sterling" unicode="&#xa3;" horiz-adv-x="758" 
d="M703 0h-652v176h73v129h-73v150h73v45q0 149 97.5 232.5t238.5 83.5q157 0 254 -74l-29 -178q-53 33 -114 49.5t-104 16.5q-74 0 -108.5 -31.5t-34.5 -119.5v-24h237v-150h-237v-129h379v-176z" />
    <glyph glyph-name="yen" unicode="&#xa5;" horiz-adv-x="801" 
d="M717 59h-227v-59h-190v59h-228v105h228v15l-29 49h-199v105h137l-168 283h217l141 -274h4l167 274h198l-181 -283h131v-105h-198l-30 -48v-16h227v-105z" />
    <glyph glyph-name="brokenbar" unicode="&#xa6;" horiz-adv-x="312" 
d="M81 448v352h150v-352h-150zM81 0v352h150v-352h-150z" />
    <glyph glyph-name="section" unicode="&#xa7;" horiz-adv-x="639" 
d="M54 379q0 71 59 112q-59 46 -59 129q0 90 82 143.5t196 53.5q57 0 124.5 -15.5t109.5 -38.5l-26 -139q-35 20 -100 34.5t-117 14.5q-108 0 -108 -54q0 -23 38.5 -34.5t93 -18t109 -17.5t93 -44t38.5 -88q0 -80 -67 -117q66 -42 66 -122q0 -95 -73.5 -144.5t-195.5 -49.5
q-145 0 -243 48l-2 144q44 -23 118.5 -38t131.5 -15q99 0 99 50q0 15 -38 23t-91.5 16t-107.5 22.5t-92 51.5t-38 93zM214 409q0 -13 9 -22.5t29.5 -15.5t38 -10t51.5 -9t53 -9q26 14 26 42q0 18 -25 26.5t-83 17t-89 15.5q-10 -14 -10 -35z" />
    <glyph glyph-name="dieresis" unicode="&#xa8;" horiz-adv-x="469" 
d="M30 638v149h159v-149h-159zM280 638v149h159v-149h-159z" />
    <glyph glyph-name="copyright" unicode="&#xa9;" horiz-adv-x="733" 
d="M52 307q0 147 86 235t228 88q143 0 229.5 -88t86.5 -235t-86.5 -234.5t-229.5 -87.5q-142 0 -228 87.5t-86 234.5zM468 248l16 -80q-38 -21 -98 -21q-78 0 -125 41t-47 121q0 79 48 122.5t129 43.5q63 0 93 -17l-22 -79q-29 12 -63 12q-40 0 -59 -18t-19 -62t19 -61.5
t61 -17.5q38 0 67 16zM139 307q0 -117 58 -184t169 -67q112 0 170.5 67t58.5 184t-58.5 184.5t-170.5 67.5q-111 0 -169 -67.5t-58 -184.5z" />
    <glyph glyph-name="ordfeminine" unicode="&#xaa;" horiz-adv-x="528" 
d="M291 644q0 8 -1.5 11.5t-9.5 6.5t-25 3q-77 0 -165 -16l2 134q94 17 188 17q99 0 138 -29.5t39 -101.5v-233h-166v59q-20 -35 -52 -52.5t-62 -17.5q-122 0 -122 103q0 56 37 79.5t116 23.5h83v13zM62 290v99h402v-99h-402zM240 535q32 0 51 26v19h-32q-44 0 -44 -24
q0 -21 25 -21z" />
    <glyph glyph-name="guillemotleft" unicode="&#xab;" horiz-adv-x="634" 
d="M335 504l-101 -230l100 -234h-174l-126 234l130 230h171zM593 504l-101 -230l100 -234h-174l-126 234l130 230h171z" />
    <glyph glyph-name="logicalnot" unicode="&#xac;" horiz-adv-x="606" 
d="M62 375h474v-307h-138v177h-336v130z" />
    <glyph glyph-name="registered" unicode="&#xae;" horiz-adv-x="712" 
d="M53 505q0 141 82.5 225.5t219.5 84.5q138 0 221 -84.5t83 -225.5q0 -142 -83 -226t-221 -84q-137 0 -219.5 84t-82.5 226zM137 505q0 -113 55.5 -177.5t162.5 -64.5t163.5 65t56.5 177t-56.5 177t-163.5 65t-162.5 -64.5t-55.5 -177.5zM233 358v305h153q51 0 81 -30.5
t30 -73.5q0 -27 -15.5 -54.5t-46.5 -42.5l60 -103h-91l-43 92h-44v-93h-84zM363 600h-46v-91h46q22 0 34.5 14t12.5 33q0 17 -12.5 30.5t-34.5 13.5z" />
    <glyph glyph-name="macron" unicode="&#xaf;" horiz-adv-x="439" 
d="M50 648v129h339v-129h-339z" />
    <glyph glyph-name="degree" unicode="&#xb0;" horiz-adv-x="418" 
d="M36 643q0 71 51 122t122 51t122 -51t51 -122t-51 -122t-122 -51t-122 51t-51 122zM146 643q0 -31 17 -52t46 -21t46 21t17 52t-17 52t-46 21t-46 -21t-17 -52z" />
    <glyph glyph-name="plusminus" unicode="&#xb1;" horiz-adv-x="517" 
d="M326 587v-132h132v-130h-132v-137h-130v137h-137v130h137v132h130zM458 0h-399v130h399v-130z" />
    <glyph glyph-name="twosuperior" unicode="&#xb2;" horiz-adv-x="491" 
d="M458 500h-425v152q3 2 31 16.5l50.5 27t54.5 33.5t54 38.5t38 38.5t16 38q0 50 -87 50q-49 0 -147 -38l-10 142q88 44 197 44q119 0 173.5 -39.5t54.5 -121.5q0 -23 -6.5 -44t-14.5 -36.5t-25 -32.5t-28.5 -27.5t-35.5 -25l-35.5 -21l-39 -21l-35.5 -18.5v-3h220v-152z
" />
    <glyph glyph-name="threesuperior" unicode="&#xb3;" horiz-adv-x="479" 
d="M450 905q0 -84 -89 -134q35 -16 60.5 -47.5t25.5 -69.5q0 -60 -38 -98.5t-92 -52t-125 -13.5q-100 0 -174 36l36 145q24 -12 66.5 -20.5t78.5 -8.5q26 0 45 9t19 25q0 41 -137 33l-18 98q76 4 112.5 15t36.5 34q0 10 -20.5 17t-39.5 7q-80 2 -137 -23l-37 138
q34 17 91 30.5t112 13.5q93 0 158.5 -34t65.5 -100z" />
    <glyph glyph-name="acute" unicode="&#xb4;" horiz-adv-x="403" 
d="M230 608h-180l90 192h213z" />
    <glyph glyph-name="mu" unicode="&#xb5;" horiz-adv-x="701" 
d="M648 556v-556h-199v90q-86 -98 -180 -106v-184h-197v756h197v-348q1 -27 17 -37.5t46 -10.5q59 0 117 34v362h199z" />
    <glyph glyph-name="paragraph" unicode="&#xb6;" horiz-adv-x="743" 
d="M382 800v-560h-55q-122 0 -208 73t-86 205q0 121 73.5 201.5t222.5 80.5h53zM448 -201v1001h200v-1001h-200z" />
    <glyph glyph-name="periodcentered" unicode="&#xb7;" horiz-adv-x="333" 
d="M62 310v199h209v-199h-209z" />
    <glyph glyph-name="cedilla" unicode="&#xb8;" horiz-adv-x="280" 
d="M230 -92q0 -49 -35.5 -78.5t-100.5 -29.5h-44v114h25q18 0 30 9t12 26t-18.5 31t-47.5 20l12 37q28 -5 54.5 -13.5t53.5 -23.5t43 -39t16 -53z" />
    <glyph glyph-name="onesuperior" unicode="&#xb9;" horiz-adv-x="427" 
d="M414 500h-379v158h108v202l-108 -10v138l280 60v-390h99v-158z" />
    <glyph glyph-name="ordmasculine" unicode="&#xba;" horiz-adv-x="534" 
d="M267 425q-113 0 -160.5 49t-47.5 140t46.5 138.5t161.5 47.5q117 0 163 -47.5t46 -138.5q0 -92 -46.5 -140.5t-162.5 -48.5zM66 389h402v-99h-402v99zM219 613q0 -35 11.5 -50t37.5 -15q27 0 37 15t10 49q0 40 -9.5 54.5t-39.5 14.5q-27 0 -37 -14.5t-10 -53.5z" />
    <glyph glyph-name="guillemotright" unicode="&#xbb;" horiz-adv-x="634" 
d="M142 274l-101 230h171l130 -230l-126 -234h-174zM400 274l-101 230h171l130 -230l-126 -234h-174z" />
    <glyph glyph-name="onequarter" unicode="&#xbc;" horiz-adv-x="1156" 
d="M1120 64h-48v-64h-167v64h-234l-38 124l183 340h187l-200 -327h102v113h167v-113h48v-137zM437 272h-379v158h108v202l-108 -10v138l280 60v-390h99v-158zM325 0l368 800h140l-368 -800h-140z" />
    <glyph glyph-name="onehalf" unicode="&#xbd;" horiz-adv-x="1202" 
d="M1161 0h-425v152q3 2 31 16.5l50.5 27t54.5 33.5t54 38.5t38 38.5t16 38q0 50 -87 50q-49 0 -147 -38l-10 142q88 44 197 44q119 0 173.5 -39.5t54.5 -121.5q0 -23 -6.5 -44t-14.5 -36.5t-25 -32.5t-28.5 -27.5t-35.5 -25l-35.5 -21l-39 -21l-35.5 -18.5v-3h220v-152z
M429 272h-379v158h108v202l-108 -10v138l280 60v-390h99v-158zM335 0l368 800h140l-368 -800h-140z" />
    <glyph glyph-name="threequarters" unicode="&#xbe;" horiz-adv-x="1155" 
d="M1119 64h-48v-64h-167v64h-234l-38 124l183 340h187l-200 -327h102v113h167v-113h48v-137zM475 677q0 -84 -89 -134q35 -16 60.5 -47.5t25.5 -69.5q0 -60 -38 -98.5t-92 -52t-125 -13.5q-100 0 -174 36l36 145q24 -12 66.5 -20.5t78.5 -8.5q26 0 45 9t19 25q0 41 -137 33
l-18 98q76 4 112.5 15t36.5 34q0 10 -20.5 17t-39.5 7q-80 2 -137 -23l-37 138q34 17 91 30.5t112 13.5q93 0 158.5 -34t65.5 -100zM325 0l368 800h140l-368 -800h-140z" />
    <glyph glyph-name="questiondown" unicode="&#xbf;" horiz-adv-x="644" 
d="M497 603v-171h-209v171h209zM488 361v-170q-133 -21 -192 -54.5t-59 -82.5q0 -37 30 -58t85 -21q109 0 218 56l44 -173q-135 -71 -282 -71q-135 0 -217 60.5t-82 182.5q0 47 14 83t34.5 59t57 42t68 29t81.5 23v95h200z" />
    <glyph glyph-name="Agrave" unicode="&#xc0;" horiz-adv-x="822" 
d="M603 0l-50 153h-293l-55 -153h-213l321 800h206l301 -800h-217zM512 848h-180l-103 147h199zM415 583l-97 -267h183z" />
    <glyph glyph-name="Aacute" unicode="&#xc1;" horiz-adv-x="822" 
d="M603 0l-50 153h-293l-55 -153h-213l321 800h206l301 -800h-217zM506 848h-180l74 147h199zM415 583l-97 -267h183z" />
    <glyph glyph-name="Acircumflex" unicode="&#xc2;" horiz-adv-x="822" 
d="M603 0l-50 153h-293l-55 -153h-213l321 800h206l301 -800h-217zM283 985h257l113 -137h-199l-43 93l-42 -93h-199zM415 583l-97 -267h183z" />
    <glyph glyph-name="Atilde" unicode="&#xc3;" horiz-adv-x="822" 
d="M603 0l-50 153h-293l-55 -153h-213l321 800h206l301 -800h-217zM352 882q-47 0 -87 -20v109q33 20 84 20q23 0 64.5 -15t62.5 -15q54 0 86 20v-109q-30 -20 -85 -20q-22 0 -63.5 15t-61.5 15zM415 583l-97 -267h183z" />
    <glyph glyph-name="Adieresis" unicode="&#xc4;" horiz-adv-x="822" 
d="M603 0l-50 153h-293l-55 -153h-213l321 800h206l301 -800h-217zM415 583l-97 -267h183zM446 858v129h139v-129h-139zM246 858v129h139v-129h-139z" />
    <glyph glyph-name="Aring" unicode="&#xc5;" horiz-adv-x="822" 
d="M603 0l-50 153h-293l-55 -153h-213l321 800h206l301 -800h-217zM281 944q0 53 37.5 84.5t93.5 31.5t93.5 -31.5t37.5 -84.5t-37.5 -84.5t-93.5 -31.5t-93.5 31.5t-37.5 84.5zM415 583l-97 -267h183zM361 944q0 -23 14 -38t37 -15q22 0 36.5 15t14.5 38t-14.5 38t-36.5 15
q-23 0 -37 -15t-14 -38z" />
    <glyph glyph-name="AE" unicode="&#xc6;" horiz-adv-x="1175" 
d="M535 0v175h-245l-90 -175h-213l441 800h696v-175h-389v-143h329v-164h-329v-143h399v-175h-599zM373 335h162v314z" />
    <glyph glyph-name="Ccedilla" unicode="&#xc7;" horiz-adv-x="729" 
d="M527 -92q0 -49 -35.5 -78.5t-100.5 -29.5h-44v114h25q18 0 30 9t12 26q0 32 -51 47q-141 33 -227 147t-86 258q0 174 122 294t313 120q135 0 203 -23l-19 -182q-79 26 -178 26q-111 0 -173 -62t-62 -173q0 -110 66 -172t174 -62q62 0 94.5 6t84.5 23v-185
q-68 -25 -185 -27q37 -32 37 -76z" />
    <glyph glyph-name="Egrave" unicode="&#xc8;" horiz-adv-x="692" 
d="M649 0h-569v800h569v-180h-369v-135h299v-170h-299v-135h369v-180zM497 848h-180l-103 147h199z" />
    <glyph glyph-name="Eacute" unicode="&#xc9;" horiz-adv-x="692" 
d="M649 0h-569v800h569v-180h-369v-135h299v-170h-299v-135h369v-180zM462 848h-180l74 147h199z" />
    <glyph glyph-name="Ecircumflex" unicode="&#xca;" horiz-adv-x="692" 
d="M80 0v800h569v-180h-369v-135h299v-170h-299v-135h369v-180h-569zM242 985h257l113 -137h-199l-43 93l-42 -93h-199z" />
    <glyph glyph-name="Edieresis" unicode="&#xcb;" horiz-adv-x="692" 
d="M80 0v800h569v-180h-369v-135h299v-170h-299v-135h369v-180h-569zM412 858v129h139v-129h-139zM212 858v129h139v-129h-139z" />
    <glyph glyph-name="Igrave" unicode="&#xcc;" horiz-adv-x="364" 
d="M274 848h-180l-103 147h199zM80 0v800h200v-800h-200z" />
    <glyph glyph-name="Iacute" unicode="&#xcd;" horiz-adv-x="364" 
d="M271 848h-180l74 147h199zM80 0v800h200v-800h-200z" />
    <glyph glyph-name="Icircumflex" unicode="&#xce;" horiz-adv-x="364" 
d="M54 985h257l113 -137h-199l-43 93l-42 -93h-199zM80 0v800h200v-800h-200z" />
    <glyph glyph-name="Idieresis" unicode="&#xcf;" horiz-adv-x="364" 
d="M13 858v129h139v-129h-139zM213 858v129h139v-129h-139zM80 0v800h200v-800h-200z" />
    <glyph glyph-name="Eth" unicode="&#xd0;" horiz-adv-x="841" 
d="M1 331v129h95v340h303q169 0 288.5 -113.5t119.5 -286.5q0 -165 -120.5 -282.5t-287.5 -117.5h-303v331h-95zM427 331h-131v-151h103q100 0 155.5 66t55.5 154q0 89 -56.5 154.5t-154.5 65.5h-103v-160h131v-129z" />
    <glyph glyph-name="Ntilde" unicode="&#xd1;" horiz-adv-x="964" 
d="M420 882q-47 0 -87 -20v109q33 20 84 20q23 0 64.5 -15t62.5 -15q54 0 86 20v-109q-30 -20 -85 -20q-23 0 -64 15t-61 15zM630 0l-400 463v-463h-200v800h176l424 -495v495h200v-800h-200z" />
    <glyph glyph-name="Ograve" unicode="&#xd2;" horiz-adv-x="890" 
d="M556 848h-180l-103 147h199zM35 403q0 193 113.5 303t298.5 110q182 0 295 -107.5t113 -304.5q0 -102 -33 -183.5t-89.5 -132.5t-129.5 -77.5t-157 -26.5t-158 27t-130.5 78t-89.5 132t-33 182zM241 402q0 -122 56.5 -186t146.5 -64q92 0 148.5 64.5t56.5 191.5
q0 116 -56.5 178t-147.5 62t-147.5 -62.5t-56.5 -183.5z" />
    <glyph glyph-name="Oacute" unicode="&#xd3;" horiz-adv-x="890" 
d="M513 848h-180l74 147h199zM35 403q0 193 113.5 303t298.5 110q182 0 295 -107.5t113 -304.5q0 -102 -33 -183.5t-89.5 -132.5t-129.5 -77.5t-157 -26.5t-158 27t-130.5 78t-89.5 132t-33 182zM241 402q0 -122 56.5 -186t146.5 -64q92 0 148.5 64.5t56.5 191.5
q0 116 -56.5 178t-147.5 62t-147.5 -62.5t-56.5 -183.5z" />
    <glyph glyph-name="Ocircumflex" unicode="&#xd4;" horiz-adv-x="890" 
d="M316 985h257l113 -137h-199l-43 93l-42 -93h-199zM35 403q0 193 113.5 303t298.5 110q182 0 295 -107.5t113 -304.5q0 -102 -33 -183.5t-89.5 -132.5t-129.5 -77.5t-157 -26.5t-158 27t-130.5 78t-89.5 132t-33 182zM241 402q0 -122 56.5 -186t146.5 -64q92 0 148.5 64.5
t56.5 191.5q0 116 -56.5 178t-147.5 62t-147.5 -62.5t-56.5 -183.5z" />
    <glyph glyph-name="Otilde" unicode="&#xd5;" horiz-adv-x="890" 
d="M383 882q-47 0 -87 -20v109q33 20 84 20q23 0 64.5 -15t62.5 -15q53 0 86 20v-109q-30 -20 -85 -20q-22 0 -64 15t-61 15zM35 403q0 193 113.5 303t298.5 110q182 0 295 -107.5t113 -304.5q0 -102 -33 -183.5t-89.5 -132.5t-129.5 -77.5t-157 -26.5t-158 27t-130.5 78
t-89.5 132t-33 182zM241 402q0 -122 56.5 -186t146.5 -64q92 0 148.5 64.5t56.5 191.5q0 116 -56.5 178t-147.5 62t-147.5 -62.5t-56.5 -183.5z" />
    <glyph glyph-name="Odieresis" unicode="&#xd6;" horiz-adv-x="890" 
d="M275 858v129h139v-129h-139zM475 858v129h139v-129h-139zM35 403q0 193 113.5 303t298.5 110q182 0 295 -107.5t113 -304.5q0 -102 -33 -183.5t-89.5 -132.5t-129.5 -77.5t-157 -26.5t-158 27t-130.5 78t-89.5 132t-33 182zM241 402q0 -122 56.5 -186t146.5 -64
q92 0 148.5 64.5t56.5 191.5q0 116 -56.5 178t-147.5 62t-147.5 -62.5t-56.5 -183.5z" />
    <glyph glyph-name="multiply" unicode="&#xd7;" horiz-adv-x="606" 
d="M135 559l168 -168l168 168l92 -92l-168 -168l168 -168l-92 -92l-168 168l-168 -168l-92 92l168 168l-168 168z" />
    <glyph glyph-name="Oslash" unicode="&#xd8;" horiz-adv-x="890" 
d="M35 403q0 193 113.5 303t298.5 110q123 0 216 -51l41 51h151l-99 -123q99 -109 99 -289q0 -102 -33 -183.5t-89.5 -132.5t-129.5 -77.5t-157 -26.5q-124 0 -217 53l-43 -53h-151l101 126q-101 112 -101 293zM241 402q0 -78 23 -132l284 352q-46 26 -103 26
q-91 0 -147.5 -62.5t-56.5 -183.5zM649 408q0 71 -23 123l-284 -353q43 -26 102 -26q92 0 148.5 64.5t56.5 191.5z" />
    <glyph glyph-name="Ugrave" unicode="&#xd9;" horiz-adv-x="904" 
d="M558 848h-180l-103 147h199zM632 800h200v-416q0 -168 -108 -284t-272 -116q-172 0 -276 102.5t-104 297.5v416h200v-416q0 -212 180 -212q84 0 132 60.5t48 151.5v416z" />
    <glyph glyph-name="Uacute" unicode="&#xda;" horiz-adv-x="904" 
d="M519 848h-180l74 147h199zM632 800h200v-416q0 -168 -108 -284t-272 -116q-172 0 -276 102.5t-104 297.5v416h200v-416q0 -212 180 -212q84 0 132 60.5t48 151.5v416z" />
    <glyph glyph-name="Ucircumflex" unicode="&#xdb;" horiz-adv-x="904" 
d="M324 985h257l113 -137h-199l-43 93l-42 -93h-199zM632 800h200v-416q0 -168 -108 -284t-272 -116q-172 0 -276 102.5t-104 297.5v416h200v-416q0 -212 180 -212q84 0 132 60.5t48 151.5v416z" />
    <glyph glyph-name="Udieresis" unicode="&#xdc;" horiz-adv-x="904" 
d="M283 858v129h139v-129h-139zM483 858v129h139v-129h-139zM632 800h200v-416q0 -168 -108 -284t-272 -116q-172 0 -276 102.5t-104 297.5v416h200v-416q0 -212 180 -212q84 0 132 60.5t48 151.5v416z" />
    <glyph glyph-name="Yacute" unicode="&#xdd;" horiz-adv-x="809" 
d="M197 800l182 -356l211 356h208l-324 -533v-267h-200v266l-304 534h227zM486 848h-180l74 147h199z" />
    <glyph glyph-name="Thorn" unicode="&#xde;" horiz-adv-x="751" 
d="M82 0v800h200v-135h179q130 0 199 -69.5t69 -183.5q0 -124 -79 -193t-189 -69h-179v-150h-200zM412 495h-130v-175h130q56 0 83 25.5t27 66.5q0 35 -27.5 59t-82.5 24z" />
    <glyph glyph-name="germandbls" unicode="&#xdf;" horiz-adv-x="824" 
d="M32 395v161h74v30q0 115 81 189t246 74q70 0 124 -12.5t85 -31t51 -44.5t26.5 -50t6.5 -50q0 -36 -15.5 -66t-38 -51t-44.5 -39.5t-37.5 -38.5t-15.5 -41q0 -19 16.5 -34t41 -26t53 -27.5t53 -35.5t41 -53.5t16.5 -78.5q0 -82 -58 -134.5t-182 -52.5q-78 0 -167 27v153
q109 -26 162 -26q70 0 70 37q0 15 -22.5 27.5t-54.5 25.5t-64 31.5t-54.5 53.5t-22.5 83q0 40 18.5 76.5t40 58.5t40 46.5t18.5 43.5q0 35 -24 53t-64 18q-128 0 -128 -143v-548h-198v395h-74z" />
    <glyph glyph-name="agrave" unicode="&#xe0;" horiz-adv-x="648" 
d="M639 0h-197v88q-42 -56 -87.5 -80.5t-105.5 -24.5q-117 0 -166 76t-49 213q0 64 16.5 115.5t53.5 94.5t104 67t159 24q117 0 272 -17v-556zM315 138q63 0 126 63v215q-36 7 -89 7q-69 0 -98 -44.5t-29 -108.5q0 -132 90 -132zM486 606h-180l-123 193h213z" />
    <glyph glyph-name="aacute" unicode="&#xe1;" horiz-adv-x="648" 
d="M639 0h-197v88q-42 -56 -87.5 -80.5t-105.5 -24.5q-117 0 -166 76t-49 213q0 64 16.5 115.5t53.5 94.5t104 67t159 24q117 0 272 -17v-556zM315 138q63 0 126 63v215q-36 7 -89 7q-69 0 -98 -44.5t-29 -108.5q0 -132 90 -132zM457 608h-180l90 192h213z" />
    <glyph glyph-name="acircumflex" unicode="&#xe2;" horiz-adv-x="648" 
d="M639 0h-197v88q-42 -56 -87.5 -80.5t-105.5 -24.5q-117 0 -166 76t-49 213q0 64 16.5 115.5t53.5 94.5t104 67t159 24q117 0 272 -17v-556zM265 800h217l113 -179h-179l-43 116l-42 -116h-179zM315 138q63 0 126 63v215q-36 7 -89 7q-69 0 -98 -44.5t-29 -108.5
q0 -132 90 -132z" />
    <glyph glyph-name="atilde" unicode="&#xe3;" horiz-adv-x="648" 
d="M639 0h-197v88q-42 -56 -87.5 -80.5t-105.5 -24.5q-117 0 -166 76t-49 213q0 64 16.5 115.5t53.5 94.5t104 67t159 24q117 0 272 -17v-556zM315 138q63 0 126 63v215q-36 7 -89 7q-69 0 -98 -44.5t-29 -108.5q0 -132 90 -132zM314 662q-23 0 -55 -9t-52 -21l-13 117
q57 34 109 34q23 0 68.5 -16t66.5 -16q47 0 96 30l11 -117q-49 -33 -93 -33q-27 0 -73.5 15.5t-64.5 15.5z" />
    <glyph glyph-name="adieresis" unicode="&#xe4;" horiz-adv-x="648" 
d="M639 0h-197v88q-42 -56 -87.5 -80.5t-105.5 -24.5q-117 0 -166 76t-49 213q0 64 16.5 115.5t53.5 94.5t104 67t159 24q117 0 272 -17v-556zM315 138q63 0 126 63v215q-36 7 -89 7q-69 0 -98 -44.5t-29 -108.5q0 -132 90 -132zM176 638v149h159v-149h-159zM426 638v149
h159v-149h-159z" />
    <glyph glyph-name="aring" unicode="&#xe5;" horiz-adv-x="648" 
d="M639 0h-197v88q-42 -56 -87.5 -80.5t-105.5 -24.5q-117 0 -166 76t-49 213q0 64 16.5 115.5t53.5 94.5t104 67t159 24q117 0 272 -17v-556zM315 138q63 0 126 63v215q-36 7 -89 7q-69 0 -98 -44.5t-29 -108.5q0 -132 90 -132zM247 730q0 55 35 88t96 33t96 -33t35 -88
t-35 -88t-96 -33t-96 33t-35 88zM320 730q0 -25 14.5 -41.5t43.5 -16.5q28 0 43 16.5t15 41.5q0 24 -15 41t-43 17q-29 0 -43.5 -16.5t-14.5 -41.5z" />
    <glyph glyph-name="ae" unicode="&#xe6;" horiz-adv-x="986" 
d="M392 343q0 34 -17 47.5t-67 13.5q-102 0 -234 -25l3 167q132 27 259 27q132 0 181 -41q71 41 174 41q125 0 194 -50t69 -181q0 -50 -12 -113h-353q23 -80 136 -80q102 0 203 14l-5 -153q-117 -27 -227 -27q-196 0 -265 113q-57 -113 -213 -113q-195 0 -195 163
q0 171 252 171h117v26zM686 424q-80 0 -98 -98h178q9 46 -13.5 72t-66.5 26zM279 122q85 0 115 94v1h-105q-36 0 -56 -14t-20 -37q0 -44 66 -44z" />
    <glyph glyph-name="ccedilla" unicode="&#xe7;" horiz-adv-x="560" 
d="M408 -92q0 -49 -35.5 -78.5t-100.5 -29.5h-44v114h25q18 0 30 9t12 26q0 22 -28 37q-110 14 -172.5 85t-62.5 199q0 48 9 90.5t31 82t56 68t87 45.5t120 17q99 0 188 -20l-9 -169q-95 22 -140 22q-80 0 -115 -30t-35 -93q0 -132 140 -132q91 0 152 17v-154
q-49 -20 -147 -29q39 -32 39 -77z" />
    <glyph glyph-name="egrave" unicode="&#xe8;" horiz-adv-x="624" 
d="M583 229h-353q13 -45 49.5 -63.5t97.5 -18.5q76 0 191 17l-16 -157q-96 -24 -197 -24q-177 0 -250 70t-73 210q0 310 309 310q55 0 97.5 -10.5t79 -35t56.5 -71t20 -113.5q0 -46 -11 -114zM430 607h-180l-123 193h213zM329 424q-39 0 -66 -25t-36 -73h179q3 12 3 24
q0 34 -22.5 54t-57.5 20z" />
    <glyph glyph-name="eacute" unicode="&#xe9;" horiz-adv-x="624" 
d="M583 229h-353q13 -45 49.5 -63.5t97.5 -18.5q76 0 191 17l-16 -157q-96 -24 -197 -24q-177 0 -250 70t-73 210q0 310 309 310q55 0 97.5 -10.5t79 -35t56.5 -71t20 -113.5q0 -46 -11 -114zM396 608h-180l90 192h213zM329 424q-39 0 -66 -25t-36 -73h179q3 12 3 24
q0 34 -22.5 54t-57.5 20z" />
    <glyph glyph-name="ecircumflex" unicode="&#xea;" horiz-adv-x="624" 
d="M583 229h-353q13 -45 49.5 -63.5t97.5 -18.5q76 0 191 17l-16 -157q-96 -24 -197 -24q-177 0 -250 70t-73 210q0 310 309 310q55 0 97.5 -10.5t79 -35t56.5 -71t20 -113.5q0 -46 -11 -114zM210 800h217l113 -179h-179l-43 116l-42 -116h-179zM329 424q-39 0 -66 -25
t-36 -73h179q3 12 3 24q0 34 -22.5 54t-57.5 20z" />
    <glyph glyph-name="edieresis" unicode="&#xeb;" horiz-adv-x="624" 
d="M583 229h-353q13 -45 49.5 -63.5t97.5 -18.5q76 0 191 17l-16 -157q-96 -24 -197 -24q-177 0 -250 70t-73 210q0 310 309 310q55 0 97.5 -10.5t79 -35t56.5 -71t20 -113.5q0 -46 -11 -114zM375 638v149h159v-149h-159zM125 638v149h159v-149h-159zM329 424q-39 0 -66 -25
t-36 -73h179q3 12 3 24q0 34 -22.5 54t-57.5 20z" />
    <glyph glyph-name="igrave" unicode="&#xec;" horiz-adv-x="359" 
d="M98 0v556h198v-556h-198zM279 607h-180l-123 193h213z" />
    <glyph glyph-name="iacute" unicode="&#xed;" horiz-adv-x="359" 
d="M261 608h-180l90 192h213zM98 0v556h198v-556h-198z" />
    <glyph glyph-name="icircumflex" unicode="&#xee;" horiz-adv-x="359" 
d="M65 800h217l113 -179h-179l-43 116l-42 -116h-179zM98 0v556h198v-556h-198z" />
    <glyph glyph-name="idieresis" unicode="&#xef;" horiz-adv-x="359" 
d="M-32 638v149h159v-149h-159zM218 638v149h159v-149h-159zM98 0v556h198v-556h-198z" />
    <glyph glyph-name="eth" unicode="&#xf0;" horiz-adv-x="683" 
d="M255 593l-75 62l45 53l-38 19l91 112l42 -18l57 67l74 -61l-43 -52q124 -78 176.5 -198.5t52.5 -296.5q0 -137 -76.5 -217t-225.5 -80q-162 0 -232 77.5t-70 219.5q0 143 69.5 218t232.5 75q33 0 62 -3q-36 50 -88 88zM225 279q0 -71 26 -106t85 -35q56 0 82.5 34.5
t26.5 105.5q0 77 -25.5 110.5t-85.5 33.5q-59 0 -84 -33t-25 -110z" />
    <glyph glyph-name="ntilde" unicode="&#xf1;" horiz-adv-x="695" 
d="M62 0v556l197 17v-108q94 108 197 108q94 0 137.5 -43t43.5 -145v-385h-198v342q0 31 -15.5 42.5t-46.5 11.5q-62 0 -118 -34v-362h-197zM277 662q-23 0 -55 -9t-52 -21l-13 117q57 34 109 34q23 0 68.5 -16t66.5 -16q47 0 96 30l11 -117q-49 -33 -93 -33
q-28 0 -73.5 15.5t-64.5 15.5z" />
    <glyph glyph-name="ograve" unicode="&#xf2;" horiz-adv-x="668" 
d="M32 278q0 138 73 216.5t229 78.5q157 0 229.5 -79t72.5 -216q0 -138 -72 -216.5t-229 -78.5q-156 0 -229.5 78.5t-73.5 216.5zM224 283q0 -75 26 -110t84 -35t84 34.5t26 108.5t-26 107.5t-85 33.5t-84 -33t-25 -106zM419 607h-180l-123 193h213z" />
    <glyph glyph-name="oacute" unicode="&#xf3;" horiz-adv-x="668" 
d="M397 608h-180l90 192h213zM32 278q0 138 73 216.5t229 78.5q157 0 229.5 -79t72.5 -216q0 -138 -72 -216.5t-229 -78.5q-156 0 -229.5 78.5t-73.5 216.5zM224 283q0 -75 26 -110t84 -35t84 34.5t26 108.5t-26 107.5t-85 33.5t-84 -33t-25 -106z" />
    <glyph glyph-name="ocircumflex" unicode="&#xf4;" horiz-adv-x="668" 
d="M225 795h217l113 -179h-179l-43 116l-42 -116h-179zM32 278q0 138 73 216.5t229 78.5q157 0 229.5 -79t72.5 -216q0 -138 -72 -216.5t-229 -78.5q-156 0 -229.5 78.5t-73.5 216.5zM224 283q0 -75 26 -110t84 -35t84 34.5t26 108.5t-26 107.5t-85 33.5t-84 -33t-25 -106z
" />
    <glyph glyph-name="otilde" unicode="&#xf5;" horiz-adv-x="668" 
d="M32 278q0 138 73 216.5t229 78.5q157 0 229.5 -79t72.5 -216q0 -138 -72 -216.5t-229 -78.5q-156 0 -229.5 78.5t-73.5 216.5zM224 283q0 -75 26 -110t84 -35t84 34.5t26 108.5t-26 107.5t-85 33.5t-84 -33t-25 -106zM276 662q-23 0 -55 -9t-52 -21l-13 117q57 34 109 34
q23 0 68.5 -16t66.5 -16q47 0 96 30l11 -117q-49 -33 -93 -33q-28 0 -74 15.5t-64 15.5z" />
    <glyph glyph-name="odieresis" unicode="&#xf6;" horiz-adv-x="668" 
d="M125 638v149h159v-149h-159zM375 638v149h159v-149h-159zM32 278q0 138 73 216.5t229 78.5q157 0 229.5 -79t72.5 -216q0 -138 -72 -216.5t-229 -78.5q-156 0 -229.5 78.5t-73.5 216.5zM224 283q0 -75 26 -110t84 -35t84 34.5t26 108.5t-26 107.5t-85 33.5t-84 -33
t-25 -106z" />
    <glyph glyph-name="divide" unicode="&#xf7;" horiz-adv-x="496" 
d="M447 235h-399v150h399v-150zM157 40v139h189v-139h-189zM157 442v139h189v-139h-189z" />
    <glyph glyph-name="oslash" unicode="&#xf8;" horiz-adv-x="671" 
d="M34 278q0 138 73 216.5t229 78.5q104 0 174 -38l35 38h121l-87 -95q59 -75 59 -200q0 -138 -72 -216.5t-229 -78.5q-106 0 -177 38l-34 -37h-119l86 94q-59 73 -59 200zM226 283q0 -34 4 -55l165 181q-26 13 -60 13q-59 0 -84 -33t-25 -106zM446 281q0 20 -4 48
l-164 -179q24 -12 58 -12q58 0 84 34.5t26 108.5z" />
    <glyph glyph-name="ugrave" unicode="&#xf9;" 
d="M634 556v-556h-199v90q-95 -107 -197 -107q-93 0 -136.5 43t-43.5 146v384h197v-342q0 -31 15.5 -42.5t47.5 -11.5q59 0 117 34v362h199zM422 607h-180l-123 193h213z" />
    <glyph glyph-name="uacute" unicode="&#xfa;" 
d="M634 556v-556h-199v90q-95 -107 -197 -107q-93 0 -136.5 43t-43.5 146v384h197v-342q0 -31 15.5 -42.5t47.5 -11.5q59 0 117 34v362h199zM418 608h-180l90 192h213z" />
    <glyph glyph-name="ucircumflex" unicode="&#xfb;" 
d="M634 556v-556h-199v90q-95 -107 -197 -107q-93 0 -136.5 43t-43.5 146v384h197v-342q0 -31 15.5 -42.5t47.5 -11.5q59 0 117 34v362h199zM226 800h217l113 -179h-179l-43 116l-42 -116h-179z" />
    <glyph glyph-name="udieresis" unicode="&#xfc;" 
d="M634 556v-556h-199v90q-95 -107 -197 -107q-93 0 -136.5 43t-43.5 146v384h197v-342q0 -31 15.5 -42.5t47.5 -11.5q59 0 117 34v362h199zM391 638v149h159v-149h-159zM141 638v149h159v-149h-159z" />
    <glyph glyph-name="yacute" unicode="&#xfd;" 
d="M435 87v49q-95 -106 -196 -106q-94 0 -137.5 43t-43.5 145v338h197v-295q0 -31 15.5 -42.5t47.5 -11.5q61 0 117 33v316h199v-510q0 -119 -85.5 -191t-241.5 -72q-74 0 -205 19l-19 167q150 -20 212 -20q79 0 109.5 29t30.5 109zM410 608h-180l90 192h213z" />
    <glyph glyph-name="thorn" unicode="&#xfe;" horiz-adv-x="691" 
d="M63 -200v1032h197v-352q78 93 190 93q208 0 208 -264q0 -69 -14.5 -123t-50 -102t-103.5 -74.5t-166 -26.5q-22 0 -64 2v-185h-197zM260 363v-222q44 -5 79 -5q71 0 99 40t28 111q0 70 -21.5 95.5t-65.5 25.5q-65 0 -119 -45z" />
    <glyph glyph-name="ydieresis" unicode="&#xff;" 
d="M435 87v49q-95 -106 -196 -106q-94 0 -137.5 43t-43.5 145v338h197v-295q0 -31 15.5 -42.5t47.5 -11.5q61 0 117 33v316h199v-510q0 -119 -85.5 -191t-241.5 -72q-74 0 -205 19l-19 167q150 -20 212 -20q79 0 109.5 29t30.5 109zM398 639v149h159v-149h-159zM148 639v149
h159v-149h-159z" />
    <glyph glyph-name="dotlessi" unicode="&#x131;" horiz-adv-x="359" 
d="M98 0v556h198v-556h-198z" />
    <glyph glyph-name="Lslash" unicode="&#x141;" horiz-adv-x="669" 
d="M92 0v310l-88 -37v130l88 37v360h200v-275l154 66v-130l-154 -66v-205h359v-190h-559z" />
    <glyph glyph-name="lslash" unicode="&#x142;" horiz-adv-x="381" 
d="M97 0v297l-82 -46v95l82 46v440h198v-330l82 46v-92l-82 -47v-409h-198z" />
    <glyph glyph-name="OE" unicode="&#x152;" horiz-adv-x="1290" 
d="M1249 0h-599v39q-83 -55 -205 -55q-175 0 -292.5 110t-117.5 306t113 306t297 110q123 0 205 -50v34h589v-175h-389v-143h329v-164h-329v-143h399v-175zM241 400q0 -120 56.5 -184t147.5 -64q90 0 147 65t57 183q0 124 -56 186t-148 62t-148 -62.5t-56 -185.5z" />
    <glyph glyph-name="oe" unicode="&#x153;" horiz-adv-x="1036" 
d="M32 278q0 138 73 216.5t229 78.5q138 0 199 -67q76 67 220 67q55 0 97.5 -10.5t79 -35t56.5 -71t20 -113.5q0 -46 -11 -114h-353q13 -45 49.5 -63.5t97.5 -18.5q76 0 191 17l-16 -157q-96 -24 -197 -24q-163 0 -239 61q-61 -61 -193 -61q-157 0 -230 78t-73 217zM224 283
q0 -75 26 -110t84 -35t84 34.5t26 109.5q0 73 -26 106.5t-85 33.5t-84 -33t-25 -106zM741 424q-39 0 -66 -25t-36 -73h179q3 12 3 24q0 34 -22.5 54t-57.5 20z" />
    <glyph glyph-name="Scaron" unicode="&#x160;" horiz-adv-x="678" 
d="M472 848h-257l-113 137h199l42 -93l43 93h199zM448 223q0 28 -30.5 47t-75.5 29.5t-98.5 29t-98.5 42t-75.5 71.5t-30.5 114q0 123 87 191.5t222 68.5q75 0 151 -17.5t124 -44.5l-38 -170q-48 29 -115.5 45t-128.5 16q-47 0 -75.5 -17.5t-28.5 -48.5q0 -30 30.5 -51
t76 -31.5t98.5 -28.5t98.5 -39.5t76 -67t30.5 -108.5q0 -115 -81.5 -192t-233.5 -77q-168 0 -277 51l8 183q131 -63 275 -63q110 0 110 68z" />
    <glyph glyph-name="scaron" unicode="&#x161;" horiz-adv-x="566" 
d="M385 621h-217l-113 179h179l43 -116l42 116h179zM361 173q0 16 -23 22t-77 12q-37 4 -61 8.5t-58.5 17t-55 30t-36 50t-15.5 75.5q0 93 70 139t179 46q127 0 226 -29l-6 -168q-132 39 -206 39q-93 0 -93 -31q0 -19 24.5 -26.5t75.5 -13.5q28 -3 44 -5.5t44 -8t45 -13
t37.5 -20t32.5 -28.5t20 -40.5t8 -53.5q0 -85 -67 -138.5t-195 -53.5q-107 0 -220 26l-12 156q144 -28 220 -28q99 0 99 36z" />
    <glyph glyph-name="Ydieresis" unicode="&#x178;" horiz-adv-x="809" 
d="M197 800l182 -356l211 356h208l-324 -533v-267h-200v266l-304 534h227zM441 858v129h139v-129h-139zM241 858v129h139v-129h-139z" />
    <glyph glyph-name="Zcaron" unicode="&#x17d;" horiz-adv-x="713" 
d="M670 0h-629v159l353 461h-353v180h626v-120l-372 -500h375v-180zM500 848h-257l-113 137h199l42 -93l43 93h199z" />
    <glyph glyph-name="zcaron" unicode="&#x17e;" horiz-adv-x="592" 
d="M554 0h-506v129l243 266h-262l30 161h476l16 -99l-266 -296h269v-161zM391 621h-217l-113 179h179l43 -116l42 116h179z" />
    <glyph glyph-name="florin" unicode="&#x192;" horiz-adv-x="547" 
d="M498 239h-126v-38q0 -102 -58 -159t-156 -57q-65 0 -139 21l13 160q34 -13 89 -13q61 0 61 60v26h-113v135h113v38q0 102 58 159t156 57q65 0 139 -21l-13 -160q-34 13 -89 13q-61 0 -61 -60v-26h126v-135z" />
    <glyph glyph-name="circumflex" unicode="&#x2c6;" horiz-adv-x="583" 
d="M183 800h217l113 -179h-179l-43 116l-42 -116h-179z" />
    <glyph glyph-name="caron" unicode="&#x2c7;" horiz-adv-x="583" 
d="M400 621h-217l-113 179h179l43 -116l42 116h179z" />
    <glyph glyph-name="breve" unicode="&#x2d8;" horiz-adv-x="503" 
d="M294 785h159q0 -151 -202 -151q-110 0 -155.5 40t-45.5 111h159q0 -34 7.5 -48.5t34.5 -14.5t35 14.5t8 48.5z" />
    <glyph glyph-name="dotaccent" unicode="&#x2d9;" horiz-adv-x="239" 
d="M33 614v172h190v-172h-190z" />
    <glyph glyph-name="ring" unicode="&#x2da;" horiz-adv-x="362" 
d="M50 710q0 55 35 88t96 33t96 -33t35 -88t-35 -88t-96 -33t-96 33t-35 88zM123 710q0 -25 14.5 -41.5t43.5 -16.5q28 0 43 16.5t15 41.5q0 24 -15 41t-43 17q-29 0 -43.5 -16.5t-14.5 -41.5z" />
    <glyph glyph-name="ogonek" unicode="&#x2db;" horiz-adv-x="280" 
d="M50 -99q0 56 52 91t115 45l12 -37q-29 -6 -47.5 -20t-18.5 -31t12 -26t30 -9h25v-114h-44q-66 0 -101 26.5t-35 74.5z" />
    <glyph glyph-name="tilde" unicode="&#x2dc;" horiz-adv-x="397" 
d="M137 662q-23 0 -55 -9t-52 -21l-13 117q57 34 109 34q23 0 68.5 -16t66.5 -16q47 0 96 30l11 -117q-50 -33 -93 -33q-27 0 -73 15.5t-65 15.5z" />
    <glyph glyph-name="hungarumlaut" unicode="&#x2dd;" horiz-adv-x="611" 
d="M210 642h-160l104 157h179zM418 642h-160l124 157h179z" />
    <glyph glyph-name="pi" unicode="&#x3c0;" horiz-adv-x="753" 
d="M703 395h-55v-209q0 -42 33 -42q19 0 32 3v-155q-49 -7 -87 -7q-175 0 -175 159v251h-157v-395h-197v395h-61v161h667v-161z" />
    <glyph glyph-name="endash" unicode="&#x2013;" horiz-adv-x="624" 
d="M562 235h-500v150h500v-150z" />
    <glyph glyph-name="emdash" unicode="&#x2014;" horiz-adv-x="980" 
d="M918 235h-856v150h856v-150z" />
    <glyph glyph-name="quoteleft" unicode="&#x2018;" horiz-adv-x="317" 
d="M163 832h103q-49 -104 -49 -188q0 -47 38 -70q-9 -80 -97 -80q-102 0 -102 101q0 91 107 237z" />
    <glyph glyph-name="quoteright" unicode="&#x2019;" horiz-adv-x="307" 
d="M159 512h-103q49 104 49 188q0 47 -38 70q9 80 97 80q102 0 102 -101q0 -91 -107 -237z" />
    <glyph glyph-name="quotesinglbase" unicode="&#x201a;" horiz-adv-x="313" 
d="M142 -140h-103q49 104 49 188q0 47 -38 70q9 80 97 80q102 0 102 -101q0 -91 -107 -237z" />
    <glyph glyph-name="quotedblleft" unicode="&#x201c;" horiz-adv-x="557" 
d="M163 832h103q-49 -104 -49 -188q0 -47 38 -70q-9 -80 -97 -80q-102 0 -102 101q0 91 107 237zM412 832h103q-49 -104 -49 -188q0 -47 38 -70q-9 -80 -97 -80q-102 0 -102 101q0 91 107 237z" />
    <glyph glyph-name="quotedblright" unicode="&#x201d;" horiz-adv-x="547" 
d="M159 512h-103q49 104 49 188q0 47 -38 70q9 80 97 80q102 0 102 -101q0 -91 -107 -237zM412 512h-103q49 104 49 188q0 47 -38 70q9 80 97 80q102 0 102 -101q0 -91 -107 -237z" />
    <glyph glyph-name="quotedblbase" unicode="&#x201e;" horiz-adv-x="553" 
d="M383 -140h-103q49 104 49 188q0 47 -38 70q9 80 97 80q102 0 102 -101q0 -91 -107 -237zM142 -140h-103q49 104 49 188q0 47 -38 70q9 80 97 80q102 0 102 -101q0 -91 -107 -237z" />
    <glyph glyph-name="dagger" unicode="&#x2020;" horiz-adv-x="670" 
d="M37 432v168h208l-14 200h200l-14 -200h216v-168h-215l13 -137v-295h-200v298l12 134h-206z" />
    <glyph glyph-name="daggerdbl" unicode="&#x2021;" horiz-adv-x="700" 
d="M52 462v168h207l-13 170h200l-13 -170h215v-168h-222v-112h222v-168h-216l14 -182h-200l13 182h-207v168h214v112h-214z" />
    <glyph glyph-name="bullet" unicode="&#x2022;" horiz-adv-x="430" 
d="M62 257v292h306v-292h-306z" />
    <glyph glyph-name="ellipsis" unicode="&#x2026;" horiz-adv-x="931" 
d="M62 0v199h209v-199h-209zM361 0v199h209v-199h-209zM660 0v199h209v-199h-209z" />
    <glyph glyph-name="perthousand" unicode="&#x2030;" horiz-adv-x="1455" 
d="M194 441q0 -44 11 -62.5t41 -18.5q51 0 51 82q0 45 -10.5 62.5t-39.5 17.5t-41 -19t-12 -62zM40 441q0 88 51 138t155 50t154.5 -50t50.5 -138t-50.5 -138t-154.5 -50t-155 50t-51 138zM728 172q0 -44 11 -62.5t41 -18.5q51 0 51 82q0 45 -10.5 62.5t-39.5 17.5t-41 -19
t-12 -62zM574 172q0 88 51 138t155 50t154.5 -50t50.5 -138t-50.5 -138t-154.5 -50t-155 50t-51 138zM263 0l378 628h130l-378 -628h-130zM1162 172q0 -44 11 -62.5t41 -18.5q51 0 51 82q0 45 -10.5 62.5t-39.5 17.5t-41 -19t-12 -62zM1008 172q0 88 51 138t155 50
t154.5 -50t50.5 -138t-50.5 -138t-154.5 -50t-155 50t-51 138z" />
    <glyph glyph-name="guilsinglleft" unicode="&#x2039;" horiz-adv-x="376" 
d="M335 504l-101 -230l100 -234h-174l-126 234l130 230h171z" />
    <glyph glyph-name="guilsinglright" unicode="&#x203a;" horiz-adv-x="376" 
d="M142 274l-101 230h171l130 -230l-126 -234h-174z" />
    <glyph glyph-name="fraction" unicode="&#x2044;" horiz-adv-x="260" 
d="M-124 0l368 800h140l-368 -800h-140z" />
    <glyph glyph-name="Euro" unicode="&#x20ac;" horiz-adv-x="807" 
d="M623 433h-308q-1 -10 -1 -32q0 -26 2 -38h307v-110h-270q60 -90 198 -90q126 0 195 38l3 -175q-89 -42 -225 -42q-146 0 -252.5 72t-147.5 197h-85v110h65q-1 10 -1 32q0 25 1 38h-65v110h87q42 126 149 199.5t257 73.5q145 0 223 -37l-9 -177q-36 16 -93 26t-104 10
q-141 0 -200 -95h274v-110z" />
    <glyph glyph-name="trademark" unicode="&#x2122;" horiz-adv-x="1353" 
d="M882 380l-103 161h-4v-301h-150v560h150l156 -261h4l172 261h150v-560h-150v301h-4l-125 -161h-96zM558 657h-175v-417h-151v417h-175v143h501v-143z" />
    <glyph glyph-name="Omega" unicode="&#x2126;" horiz-adv-x="932" 
d="M865 438q0 -71 -37 -141.5t-105 -107.5v-3h159v-186h-360v186q61 16 99 82t38 152q0 117 -51.5 172.5t-142.5 55.5t-142.5 -56t-51.5 -172q0 -96 38 -156.5t101 -77.5v-186h-360v186h139v3q-55 31 -89.5 102.5t-34.5 145.5q0 171 110 275t290 104q183 0 291.5 -99
t108.5 -279z" />
    <glyph glyph-name="partialdiff" unicode="&#x2202;" horiz-adv-x="664" 
d="M388 548q-37 52 -100 100.5t-128 79.5l87 108q371 -140 371 -567q0 -131 -73.5 -208t-216.5 -77q-156 0 -223 74t-67 211t66.5 209.5t223.5 72.5q32 0 60 -3zM222 268q0 -68 25 -101.5t82 -33.5q54 0 79.5 33t25.5 101q0 74 -25 106.5t-82 32.5t-81 -32t-24 -106z" />
    <glyph glyph-name="Delta" unicode="&#x2206;" horiz-adv-x="840" 
d="M35 150l292 650h206l271 -649v-151h-769v150zM425 610l-196 -435h364l-165 435h-3z" />
    <glyph glyph-name="product" unicode="&#x220f;" horiz-adv-x="901" 
d="M548 -200v810h-201v-810h-200v810h-108v190h824v-190h-115v-810h-200z" />
    <glyph glyph-name="summation" unicode="&#x2211;" horiz-adv-x="686" 
d="M641 -200h-599v141l235 355l-235 363v141h599v-190h-349l184 -317l-184 -303h349v-190z" />
    <glyph glyph-name="minus" unicode="&#x2212;" horiz-adv-x="602" 
d="M538 245h-474v130h474v-130z" />
    <glyph glyph-name="radical" unicode="&#x221a;" horiz-adv-x="824" 
d="M283 0l-130 401h-132v155h262l118 -396h4l236 672h196l-330 -832h-224z" />
    <glyph glyph-name="infinity" unicode="&#x221e;" horiz-adv-x="856" 
d="M637 92q-89 0 -216 121q-57 -58 -106.5 -90.5t-104.5 -32.5q-71 0 -113 63.5t-42 137.5q0 81 48.5 144t116.5 63q32 0 71.5 -24t63.5 -47l70 -70q45 47 69.5 70t66.5 47t81 24q70 0 115 -63t45 -137q0 -75 -47.5 -140.5t-117.5 -65.5zM242 234q50 0 108 50
q-74 70 -106 70q-20 0 -37.5 -13.5t-17.5 -47.5q0 -32 17 -45.5t36 -13.5zM606 344q-46 0 -109 -56q60 -52 103 -52q24 0 41 17.5t17 39.5q0 20 -13 35.5t-39 15.5z" />
    <glyph glyph-name="integral" unicode="&#x222b;" horiz-adv-x="523" 
d="M10 -200v168q101 0 129 13.5t28 74.5v519q0 58 19.5 100t49 66t77.5 37.5t93 17.5t106 4v-173q-105 0 -125.5 -10.5t-20.5 -70.5v-521q0 -59 -14.5 -99.5t-40 -65.5t-72 -38t-98 -17.5t-131.5 -4.5z" />
    <glyph glyph-name="approxequal" unicode="&#x2248;" horiz-adv-x="680" 
d="M483 309q-52 0 -141.5 30.5t-141.5 30.5q-16 0 -32 -3.5t-30.5 -9.5t-24 -11.5l-21 -12.5t-13.5 -8l-16 143q25 18 65.5 35t76.5 17q70 0 149 -30t120 -30q37 0 71.5 13t53.5 32l18 -141q-30 -28 -59.5 -41.5t-74.5 -13.5zM483 89q-52 0 -141.5 30.5t-141.5 30.5
q-16 0 -32 -3.5t-30.5 -9.5t-24 -11.5l-21 -12.5t-13.5 -8l-16 143q25 18 65.5 35t76.5 17q70 0 149 -30t120 -30q37 0 71.5 13t53.5 32l18 -141q-30 -28 -59.5 -41.5t-74.5 -13.5z" />
    <glyph glyph-name="notequal" unicode="&#x2260;" horiz-adv-x="513" 
d="M52 23l45 92h-39v130h103l60 120h-163v130h227l45 91h130l-45 -91h42v-130h-106l-60 -120h166v-130h-230l-45 -92h-130z" />
    <glyph glyph-name="lessequal" unicode="&#x2264;" horiz-adv-x="554" 
d="M482 0h-424v150h420l-429 130v147l433 164v-165l-265 -73l265 -43v-310z" />
    <glyph glyph-name="greaterequal" unicode="&#x2265;" horiz-adv-x="554" 
d="M72 426v165l433 -164v-147l-430 -130h421v-150h-424v310l265 43z" />
    <glyph glyph-name="lozenge" unicode="&#x25ca;" horiz-adv-x="751" 
d="M33 402l232 398h231l222 -400l-232 -400h-230zM505 399l-126 250l-133 -246l126 -251z" />
    <glyph glyph-name="apple" unicode="&#xf8ff;" horiz-adv-x="1159" 
d="M439 408v29h-19v-29h19zM499 408v29h-19v-29h19zM679 428v9h-19v-9h19zM739 408v29h-19v-29h19zM859 428v9h-19v-9h19zM90 417h-10v-10h-11v10h-10v11h10v10h11v-10h10v-11zM130 398h-11v10h11v-10zM160 417h-10v-10h-11v10h-10v11h10v10h11v-10h10v-11zM130 437h-11v11
h11v-11zM170 398h-11v10h11v-10zM170 437h-11v11h11v-11zM220 398h-10v-10h-11v10h10v10h11v-10zM250 417h-10v-10h-11v10h-10v11h10v10h11v-10h10v-11zM220 437h-11v10h-10v11h11v-10h10v-11zM270 388h-11v10h-10v10h11v-10h10v-10zM270 447h-10v-10h-11v11h10v10h11v-11z
M330 398h-21v9h-10v30h-10v11h10v10h11v-10h20v-11h-20v-29h20v-10zM390 407h-10v-9h-10v-10h-10v-10h-11v11h10v18h-10v41h11v-40h19v40h11v-41zM450 407h-10v-9h-20v-20h-11v70h31v-10h10v-31zM510 407h-10v-9h-21v9h-10v31h10v10h21v-10h10v-31zM570 398h-21v9h-10v30
h-10v11h10v10h11v-10h20v-11h-20v-29h20v-10zM630 398h-11v39h-19v-39h-11v70h11v-20h20v-10h10v-40zM690 398h-31v9h-10v31h10v10h21v-10h10v-21h-30v-9h30v-10zM750 378h-11v20h-20v9h-10v31h10v10h31v-70zM810 398h-31v9h-10v41h11v-40h19v40h11v-50zM870 398h-31v9h-10
v31h10v10h21v-10h10v-21h-30v-9h30v-10zM910 398h-10v-10h-11v10h10v10h11v-10zM940 417h-10v-10h-11v10h-10v11h10v10h11v-10h10v-11zM910 437h-11v10h-10v11h11v-10h10v-11zM960 388h-11v10h-10v10h11v-10h10v-10zM960 447h-10v-10h-11v11h10v10h11v-11zM1000 398h-11v10
h11v-10zM1030 417h-10v-10h-11v10h-10v11h10v10h11v-10h10v-11zM1000 437h-11v11h11v-11zM1040 398h-11v10h11v-10zM1040 437h-11v11h11v-11zM1100 417h-10v-10h-11v10h-10v11h10v10h11v-10h10v-11z" />
    <glyph glyph-name="fi" unicode="&#xfb01;" horiz-adv-x="754" 
d="M30 395v161h74v68q0 105 60.5 165t162.5 60q62 0 125 -17v-170q-29 12 -76 12q-31 0 -52.5 -15.5t-21.5 -46.5v-56h389v-556h-198v395h-191v-395h-198v395h-74zM493 637v179h198v-179h-198z" />
    <glyph glyph-name="fl" unicode="&#xfb02;" horiz-adv-x="749" 
d="M483 0v666q-45 8 -86 8q-51 0 -73 -14t-22 -48v-56h131v-161h-131v-395h-198v395h-74v161h74v68q0 225 274 225q86 0 160 -17h142v-832h-197z" />
    </font>
</defs>
</svg>
